<svg width="48" height="29" viewBox="0 0 48 29" fill="none" xmlns="http://www.w3.org/2000/svg">
<path d="M44.0487 1.35963C43.6704 1.117 42.7219 0.803866 41.9559 0.668669C41.3756 0.566278 40.0126 0.488808 39.711 0.541096C39.6209 0.556737 39.3408 0.601934 39.0885 0.641564C38.0066 0.81162 36.8396 1.4147 36.2181 2.12487C35.6 2.83114 35.2548 3.73543 35.2561 4.64468C35.2575 5.65408 35.6404 6.58322 36.3569 7.31626C36.8946 7.86652 37.6149 8.25852 38.7937 8.64237C39.2442 8.7891 39.9885 9.03046 40.4477 9.17871C41.5224 9.52571 41.9878 9.76675 42.3199 10.1485C43.0228 10.956 42.728 12.1602 41.6959 12.6976C40.5108 13.3146 38.1451 13.1864 36.2759 12.4039C35.2366 11.9687 35.0384 12.0962 35.0745 13.1768C35.0992 13.9189 35.176 14.0744 35.6582 14.361C36.6639 14.9586 38.5767 15.3356 40.2288 15.2618C41.977 15.1837 43.2522 14.6836 44.1719 13.7153C44.9769 12.8676 45.2904 12.0975 45.3007 10.9419C45.3086 10.0633 45.1626 9.53347 44.7235 8.84702C44.1527 7.95453 43.4978 7.57877 41.1654 6.80537C38.7943 6.01904 38.2952 5.7517 38.0008 5.10992C37.7178 4.49292 37.9365 3.6168 38.4714 3.22486C39.4112 2.53629 41.9057 2.55478 43.4448 3.26171C43.6423 3.35251 43.9257 3.44363 44.0746 3.46424C44.4752 3.51978 44.5599 3.36423 44.5599 2.57354C44.5599 1.8283 44.4786 1.63539 44.0487 1.35963Z" fill="white"/>
<path d="M18.066 1.38706C18.0133 1.28395 17.9062 1.14106 17.8281 1.06955C17.7025 0.954504 17.5676 0.936741 16.6583 0.915601C15.7862 0.895256 15.6082 0.90798 15.4831 0.999767C15.2699 1.15624 15.2919 1.51636 15.5704 2.42588C15.6988 2.84506 15.8282 3.27748 15.858 3.38683C15.9224 3.62323 16.3884 5.18043 17.0381 7.33004C17.2969 8.18661 17.5329 8.97692 17.5623 9.08626C17.5918 9.19561 17.7663 9.78464 17.9502 10.3951C18.134 11.0056 18.4342 12.0048 18.6174 12.6153C18.8006 13.2258 18.9949 13.8721 19.0492 14.0515C19.2753 14.7984 19.4447 14.8851 20.676 14.8851C21.647 14.8851 21.9323 14.8158 22.1136 14.536C22.2129 14.3827 22.3709 13.7702 22.998 11.1076C23.1482 10.4697 23.3453 9.63467 23.4359 9.25194C24.2626 5.76124 24.4276 5.05604 24.4745 4.81169C24.5445 4.44713 24.5795 4.34778 24.638 4.34778C24.668 4.34778 24.7868 4.75788 24.902 5.25903C25.0172 5.76025 25.2246 6.63253 25.3628 7.1975C25.6077 8.19874 25.6921 8.55204 26.1779 10.6105C26.307 11.1573 26.4411 11.709 26.476 11.8366C26.5107 11.9641 26.6566 12.5678 26.8 13.1781C26.9435 13.7884 27.1079 14.3798 27.1654 14.4922C27.3316 14.8172 27.5887 14.8852 28.6516 14.8848C29.4642 14.8846 29.6151 14.8675 29.7971 14.7552C30.0976 14.57 30.1262 14.4987 30.836 12.1679C30.9192 11.8946 31.1639 11.1043 31.3796 10.4117C31.5954 9.71917 31.8807 8.79467 32.0135 8.35727C32.1464 7.91987 32.3431 7.27868 32.4505 6.93241C32.5581 6.58613 32.6732 6.21335 32.7066 6.104C32.7689 5.89962 33.1296 4.73203 33.4743 3.61879C34.174 1.35969 34.1861 1.30343 34.0188 1.09474C33.8933 0.938134 33.8691 0.934754 32.8827 0.934754C32.2414 0.934754 31.9014 0.918741 31.6777 1.07243C31.3987 1.26421 31.3009 1.72027 31.0254 2.80152C30.8598 3.45145 30.6509 4.2666 30.5613 4.61287C30.2132 5.95728 29.3399 9.38515 28.9065 11.1076C28.8103 11.4903 28.7046 11.8034 28.6717 11.8034C28.6389 11.8034 28.5442 11.5052 28.4614 11.1407C28.3785 10.7762 28.2081 10.0456 28.0827 9.51704C27.7982 8.31896 27.2079 5.77576 26.8289 4.11583C26.1859 1.29998 26.1625 1.22324 25.8913 1.04351C25.7569 0.954437 25.5427 0.934754 24.7087 0.934754C23.4112 0.934754 23.2832 1.00215 23.0986 1.78224C23.0536 1.97225 22.8652 2.78376 22.6798 3.58565C22.4944 4.38755 22.2717 5.34187 22.185 5.70637C22.0983 6.07087 21.955 6.68223 21.8667 7.06495C21.7783 7.44768 21.5704 8.34236 21.4045 9.05313C21.2387 9.7639 21.0357 10.6437 20.9533 11.0082C20.871 11.3727 20.7757 11.6651 20.7416 11.658C20.7075 11.651 20.3942 10.5028 20.0454 9.10654C19.6966 7.71032 19.1301 5.4444 18.7866 4.0713C18.443 2.69813 18.1188 1.49025 18.066 1.38706Z" fill="white"/>
<path d="M47.0858 18.934C46.9704 18.7082 46.5098 18.4942 45.8479 18.359C45.59 18.3063 44.8777 18.2513 44.265 18.2368C43.1103 18.2095 43.0175 18.2141 42.201 18.3396C41.7644 18.4066 41.5331 18.4594 40.7922 18.6614C40.4511 18.7544 40.0784 18.9056 39.642 19.1278C38.7502 19.582 38.4073 19.9225 38.6024 20.1602C38.6166 20.1775 38.626 20.1925 38.638 20.2047C38.7095 20.2776 38.8763 20.2569 40.7267 20.0902C43.2478 19.863 44.5786 20.0136 44.9357 20.5664C45.1234 20.857 45.0789 21.7759 44.8319 22.7088C44.6293 23.4741 44.2127 24.7164 43.8108 25.7538C43.5404 26.4517 43.5131 26.5685 43.5888 26.7053C43.8485 27.1745 45.0731 25.9767 45.9218 24.4235C46.2569 23.81 46.6919 22.6893 46.893 21.9207C47.1794 20.8266 47.2774 19.3088 47.0858 18.934Z" fill="white"/>
<path d="M2.36177 19.6889C1.98337 19.4778 1.60005 19.2651 1.50995 19.2162C0.972578 18.9248 0.60826 19.4168 1.0267 19.8688C1.3078 20.1725 2.61988 21.2706 3.4757 21.9185C4.66085 22.8157 5.88747 23.6198 7.30891 24.4314C7.62624 24.6126 9.47333 25.545 9.92991 25.7545C10.9953 26.2435 13.0856 27.0061 14.4511 27.4043C17.8047 28.382 21.9397 28.8628 25.3998 28.6772C27.3458 28.5728 28.9373 28.393 30.1444 28.1412C30.3065 28.1074 30.6161 28.0441 30.8324 28.0006C33.3973 27.4846 36.1628 26.5754 38.3916 25.5154C38.729 25.3549 39.0165 25.2236 39.0304 25.2236C39.084 25.2236 40.8314 24.2265 41.3549 23.8971C42.2551 23.3309 42.9276 22.8198 43.0261 22.6273C43.1703 22.3451 43.1393 22.1199 42.9268 21.9049C42.6671 21.6423 42.3125 21.6447 41.6694 21.9136C38.6877 23.1601 34.5881 24.3437 31.8238 24.7561C31.6029 24.7891 31.1125 24.8647 30.7341 24.9241C28.6791 25.2468 26.881 25.3627 24.1488 25.3486C22.8875 25.342 21.5901 25.3122 21.2657 25.2821C18.9413 25.0671 18.6589 25.0325 16.9738 24.7572C14.6086 24.3707 12.4245 23.8309 9.96267 23.0244C8.8781 22.6691 7.10918 21.9993 6.32603 21.6472C6.18188 21.5825 5.8133 21.4172 5.50697 21.2801C4.75566 20.9439 3.2039 20.1588 2.36177 19.6889Z" fill="white"/>
<path fill-rule="evenodd" clip-rule="evenodd" d="M9.56952 0.572509C12.0429 0.835743 13.3244 1.92698 13.8084 4.1821C13.8872 4.54899 13.9172 5.40841 13.9518 8.29099C13.9862 11.1412 14.0151 11.9793 14.0846 12.1348C14.1335 12.2441 14.2757 12.5573 14.4007 12.8307C14.6666 13.4121 14.7235 13.6859 14.6193 13.8828C14.5778 13.9612 14.2578 14.2188 13.9083 14.4552C13.2185 14.9218 12.9043 14.9988 12.5923 14.7777C12.3896 14.6342 11.9346 13.9971 11.7318 13.573C11.6417 13.3845 11.5332 13.2299 11.4906 13.2294C11.448 13.2288 11.2416 13.3947 11.0319 13.5982C10.2309 14.3753 9.24694 14.8917 8.13229 15.1202C7.36958 15.2764 6.04736 15.2264 5.44145 15.0182C4.70672 14.7659 4.31566 14.5347 3.87134 14.0898C3.07069 13.2883 2.73068 12.3774 2.73356 11.0413C2.73514 10.3175 2.75781 10.146 2.91323 9.68272C3.20633 8.80918 3.56822 8.28562 4.27615 7.71098C4.91502 7.19239 5.60512 6.89278 6.60733 6.6988C7.52134 6.52192 9.13817 6.59528 10.4869 6.87482C10.6851 6.91591 10.9505 6.95315 11.0766 6.95753L11.3059 6.96555L11.2928 6.06212C11.2616 3.91973 10.753 3.15813 9.14452 2.84519C8.51437 2.72258 7.43321 2.75519 6.66407 2.92008C6.08595 3.04401 5.08335 3.36178 4.68791 3.54648C4.54376 3.61382 4.30453 3.68937 4.15624 3.71442C3.83314 3.76896 3.69934 3.6663 3.63394 3.3138C3.5599 2.91484 3.63748 2.05867 3.76558 1.86098C4.01372 1.47792 5.80674 0.811951 7.04681 0.642294C8.12548 0.494706 8.69116 0.479065 9.56952 0.572509ZM6.03536 9.35931C6.3949 8.96147 6.78726 8.75941 7.46577 8.62262C8.05111 8.50466 8.86473 8.5034 9.76858 8.61904C10.7904 8.7498 11.2231 8.84046 11.2897 8.93795C11.3629 9.04504 11.2895 10.2562 11.1813 10.727C10.9564 11.7055 10.0417 12.578 8.89952 12.9035C8.12253 13.125 7.06057 13.1254 6.57326 12.9046C5.8494 12.5766 5.47998 11.9003 5.48299 10.9088C5.48502 10.2293 5.63867 9.79836 6.03536 9.35931Z" fill="white"/>
</svg>
