<svg width="45" height="30" viewBox="0 0 45 30" fill="none" xmlns="http://www.w3.org/2000/svg">
<path d="M36.7518 10.6024C36.6804 10.5623 36.6041 10.5306 36.5194 10.5157C36.1903 10.4562 35.8692 10.4255 35.5551 10.4097C33.9689 4.61727 28.5954 0.4729 22.5499 0.4729C15.109 0.4729 9.05566 6.52445 9.05566 13.9634C9.05566 14.3682 9.07647 14.7755 9.1171 15.1912C8.65229 15.0738 8.15231 15.0124 7.62259 15.0431C7.61912 15.0431 7.61515 15.0426 7.61168 15.0426C7.60227 15.0426 7.59335 15.0441 7.58393 15.0441C7.57501 15.0446 7.56659 15.0441 7.55718 15.0446C7.55519 15.0446 7.55272 15.0456 7.55073 15.0456C3.47897 15.0778 0.17627 18.3971 0.17627 22.4761C0.17627 26.5754 3.51168 29.9111 7.61119 29.9111H15.9579C16.0089 29.9111 16.058 29.9056 16.106 29.8962C16.1437 29.9022 16.1814 29.9076 16.2205 29.9076C22.3021 29.9076 23.5791 25.7157 23.5791 22.1991V21.4742L25.7556 23.2691C25.7556 23.2691 26.5004 22.2747 26.6466 22.0794L23.3209 19.4233C23.3145 19.4184 23.3076 19.4159 23.3011 19.4114C23.2783 19.3956 23.255 19.3822 23.2308 19.3693C23.2109 19.3584 23.1911 19.347 23.1708 19.3386C23.149 19.3287 23.1267 19.3222 23.1039 19.3148C23.0801 19.3069 23.0563 19.2989 23.0321 19.294C23.0103 19.289 22.988 19.2866 22.9657 19.2836C22.9409 19.2806 22.9161 19.2771 22.8913 19.2766C22.868 19.2761 22.8442 19.2781 22.821 19.2801C22.7972 19.2821 22.7734 19.2831 22.7501 19.2875C22.7263 19.2915 22.7025 19.298 22.6792 19.3044C22.6564 19.3108 22.6336 19.3163 22.6114 19.3252C22.5895 19.3336 22.5682 19.344 22.5469 19.3549C22.5241 19.3663 22.5013 19.3777 22.4795 19.3916C22.4721 19.3961 22.4642 19.399 22.4567 19.4035L18.9859 22.0403C19.1296 22.2519 19.8223 23.2691 19.8223 23.2691L22.092 21.4489V22.1991C22.092 26.4436 20.2264 28.4211 16.22 28.4211C16.169 28.4211 16.1199 28.4266 16.0719 28.436C16.0342 28.43 15.9965 28.4246 15.9574 28.4246H7.61119C4.33128 28.4246 1.66286 25.7558 1.66286 22.4761C1.66286 19.1964 4.33128 16.5286 7.61119 16.5286C8.08739 16.5286 8.57103 16.598 9.05466 16.7243C10.2831 17.141 11.1493 18.0528 11.1691 18.0746C11.3475 18.0746 12.1245 17.2025 12.2672 17.0722C12.2231 17.0236 11.6413 16.4003 10.7102 15.8542C10.6037 15.1992 10.5422 14.5743 10.5422 13.9629C10.5422 7.344 15.9291 1.95891 22.5499 1.95891C27.8149 1.95891 32.5021 5.4938 34.0229 10.4771C32.1052 10.7431 30.7539 11.586 30.6761 11.6355C30.8178 11.858 31.4749 12.8891 31.4749 12.8891C31.4922 12.8782 32.8713 12.0265 34.7171 11.9001L34.9718 11.9021C39.4916 11.9408 43.1689 15.6451 43.1689 20.1596C43.1689 24.7162 39.4623 28.4236 34.9054 28.4236H28.6533V29.9101H34.9049C40.2814 29.9101 44.655 25.5363 44.655 20.1596C44.655 15.4375 41.2413 11.474 36.7518 10.6024Z" fill="white"/>
</svg>
